<svg width="49" height="49" viewBox="0 0 49 49" fill="none" xmlns="http://www.w3.org/2000/svg">
<path d="M24.4999 4.08331C13.2299 4.08331 4.08325 13.23 4.08325 24.5C4.08325 35.77 13.2299 44.9166 24.4999 44.9166C35.7699 44.9166 44.9166 35.77 44.9166 24.5C44.9166 13.23 35.7699 4.08331 24.4999 4.08331ZM24.4999 10.2083C27.8891 10.2083 30.6249 12.9441 30.6249 16.3333C30.6249 19.7225 27.8891 22.4583 24.4999 22.4583C21.1108 22.4583 18.3749 19.7225 18.3749 16.3333C18.3749 12.9441 21.1108 10.2083 24.4999 10.2083ZM24.4999 39.2C19.3958 39.2 14.8837 36.5866 12.2499 32.6258C12.3112 28.5629 20.4166 26.3375 24.4999 26.3375C28.5628 26.3375 36.6887 28.5629 36.7499 32.6258C34.1162 36.5866 29.6041 39.2 24.4999 39.2Z" fill="#C5E117"/>
</svg>
