<svg width="40" height="40" viewBox="0 0 40 40" fill="none" xmlns="http://www.w3.org/2000/svg">
<path d="M23.7746 26.5628L20.9122 23.7243C19.5967 22.4198 18.9389 21.7675 18.1816 21.5228C17.5154 21.3075 16.7984 21.3075 16.1321 21.5228C15.3748 21.7675 14.717 22.4198 13.4014 23.7243L6.73663 30.437M23.7746 26.5628L24.3434 25.9985C25.6867 24.6665 26.3582 24.0005 27.1289 23.7575C27.8066 23.5437 28.5347 23.552 29.2074 23.7813C29.9721 24.0422 30.6282 24.7233 31.9404 26.0858L33.3334 27.5002M23.7746 26.5628L30.3667 33.2713M6.73663 30.437C6.78782 30.871 6.87646 31.2118 7.03006 31.5133C7.34963 32.1405 7.85958 32.6505 8.48678 32.97C9.19981 33.3333 10.1332 33.3333 12.0001 33.3333H28.0001C29.0356 33.3333 29.7839 33.3333 30.3667 33.2713M6.73663 30.437C6.66675 29.8443 6.66675 29.0777 6.66675 28V12C6.66675 10.1332 6.66675 9.19973 7.03006 8.4867C7.34963 7.85948 7.85958 7.34955 8.48678 7.02998C9.19981 6.66667 10.1332 6.66667 12.0001 6.66667H18.3334M30.3667 33.2713C30.8346 33.2215 31.1959 33.1318 31.5134 32.97C32.1406 32.6505 32.6506 32.1405 32.9701 31.5133C33.3334 30.8003 33.3334 29.8668 33.3334 28V21.6667M30.0001 15V10M30.0001 10V5M30.0001 10H35.0001M30.0001 10H25.0001" stroke="white" stroke-width="3" stroke-linecap="round" stroke-linejoin="round"/>
</svg>
