<svg width="23" height="23" viewBox="0 0 23 23" fill="none" xmlns="http://www.w3.org/2000/svg">
<g clip-path="url(#clip0_8_232)">
<path d="M15.0938 1.4375C14.0836 1.43724 13.0875 1.67361 12.1852 2.12766C11.2828 2.5817 10.4994 3.24081 9.89767 4.05215C9.29594 4.86349 8.89263 5.80451 8.72006 6.79979C8.5475 7.79506 8.61048 8.81693 8.90395 9.78348L1.4375 17.25V21.5625H5.75L13.2164 14.096C14.1062 14.3661 15.0438 14.4413 15.9652 14.3163C16.8866 14.1913 17.7703 13.8692 18.556 13.3718C19.3416 12.8744 20.0108 12.2135 20.5179 11.434C21.025 10.6546 21.3582 9.77502 21.4946 8.85521C21.631 7.9354 21.5675 6.99699 21.3084 6.10394C21.0493 5.21089 20.6007 4.38419 19.9933 3.68019C19.3858 2.97619 18.6336 2.41143 17.7881 2.02441C16.9426 1.63739 16.0236 1.43721 15.0938 1.4375ZM15.0938 12.9375C14.5988 12.9372 14.1067 12.864 13.6331 12.7203L12.8088 12.4703L12.1999 13.0792L9.9135 15.3657L8.92263 14.375L7.90625 15.3914L8.89719 16.3823L7.75733 17.5222L6.76638 16.5312L5.75 17.5476L6.74094 18.5385L5.15459 20.125H2.875V17.8454L9.9204 10.8L10.5293 10.1909L10.2797 9.36675C9.9725 8.35402 9.99246 7.2702 10.3367 6.26947C10.681 5.26874 11.3321 4.40205 12.1974 3.7927C13.0627 3.18334 14.098 2.86235 15.1563 2.87538C16.2145 2.88841 17.2416 3.2348 18.0916 3.86528C18.9416 4.49575 19.5712 5.37821 19.8907 6.38712C20.2103 7.39602 20.2035 8.48 19.8715 9.48486C19.5394 10.4897 18.899 11.3643 18.0412 11.9841C17.1834 12.604 16.1521 12.9376 15.0938 12.9375Z" fill="#757575"/>
<path d="M15.8125 8.625C16.6064 8.625 17.25 7.98141 17.25 7.1875C17.25 6.39359 16.6064 5.75 15.8125 5.75C15.0186 5.75 14.375 6.39359 14.375 7.1875C14.375 7.98141 15.0186 8.625 15.8125 8.625Z" fill="#757575"/>
</g>
<defs>
<clipPath id="clip0_8_232">
<rect width="23" height="23" fill="white"/>
</clipPath>
</defs>
</svg>
