<svg width="157" height="116" viewBox="0 0 157 116" fill="none" xmlns="http://www.w3.org/2000/svg">
<path d="M33.6707 51.5291L55.3789 41.2082C49.6462 36.2056 44.0439 31.3168 38.441 26.4284C37.3323 25.464 36.2338 24.4874 35.1004 23.5352C32.5125 21.3619 32.5105 19.1316 35.1272 17.0262C35.3587 16.8399 35.6211 16.675 35.8718 16.5019C45.0971 10.1284 43.0218 10.8928 53.3654 13.6149C62.8187 16.1019 72.1313 18.9631 81.2081 22.1258C87.1683 24.2022 91.9249 24.692 97.6954 21.4177C105.428 16.995 114.536 14.074 124.188 12.9215C132.068 11.9835 139.834 12.0343 147.613 13.6661C158.206 15.8867 157.75 23.8804 152.702 27.6694C149.938 29.6843 146.909 31.491 143.66 33.0628C135.511 37.1203 127.281 41.0966 118.93 44.9257C117.715 45.4314 116.666 46.1284 115.857 46.9672C115.048 47.8061 114.498 48.7662 114.248 49.7795C110.221 63.0271 106.012 76.2467 101.823 89.4677C101.336 90.8551 100.754 92.2223 100.081 93.5664C99.6072 94.6135 98.8482 95.5778 97.8507 96.3999C96.8531 97.2219 95.638 97.8839 94.2805 98.3456C89.3343 100.098 84.3709 101.827 79.3307 103.421C74.1159 105.071 71.3984 103.583 71.7281 99.3942C72.557 88.8571 73.3914 78.3206 74.2314 67.7845C74.2774 67.2018 74.2375 66.6171 74.2375 65.6304C72.7165 66.273 71.4786 66.7927 70.2456 67.3185C58.3721 72.3841 46.7809 77.8851 33.8706 81.4406C28.7548 82.8616 23.4274 83.8255 18.0017 84.3114C12.7238 84.7647 8.63356 82.8395 6.33359 79.0327C3.95636 75.2797 2.48074 71.2497 1.97272 67.1231C1.37643 61.3181 0.791824 55.512 0.327435 49.7009C0.0643262 46.4154 2.04898 44.2395 6.20512 42.7346C15.7347 39.2831 14.6706 39.7825 21.0793 43.911C24.7841 46.2966 28.5914 48.5994 32.3628 50.9297C32.7805 51.1504 33.2175 51.3507 33.6707 51.5291ZM79.2682 97.1809L80.1709 97.4856C82.4413 96.7161 84.6362 95.7657 86.9993 95.2182C91.005 94.2917 92.0698 92.0212 92.9842 89.3625C97.9537 74.9089 103.022 60.4733 108.188 46.056C108.744 44.4598 109.731 42.9631 111.09 41.6557C112.449 40.3484 114.15 39.2573 116.094 38.448C123.244 35.2854 130.114 31.7736 137.025 28.3226C140.336 26.6699 143.568 24.9108 146.652 23.0348C149.255 21.4517 148.857 20.2432 145.703 19.4513C138.857 17.7357 131.827 17.4688 124.712 18.1428C115.516 19.0133 107.56 22.1664 99.8978 25.7477C78.6541 35.6795 57.4412 45.6475 36.2592 55.6516C32.4809 57.4311 31.8998 57.4641 28.5426 55.1948C24.3252 52.3438 20.2062 49.4136 16.004 46.5504C14.8925 45.7926 13.847 44.5115 11.9715 45.4794C10.048 46.4728 6.90928 46.7093 7.24864 49.2537C8.33404 57.389 8.98185 65.574 10.6677 73.6414C11.988 79.9585 14.7895 80.8163 23.1389 78.9779C32.193 76.9842 40.4986 73.8007 48.5566 70.2442C57.0915 66.478 65.5289 62.5916 74.0253 58.7772C77.7459 57.1068 80.4869 58.0392 81.0928 61.1749C81.3865 62.4232 81.5393 63.6873 81.5497 64.9543C81.279 72.8074 80.9382 80.6584 80.5823 88.5095C80.5445 89.3432 80.2189 90.1691 80.1015 91.0035C79.7979 93.0614 79.5416 95.1223 79.271 97.1817L79.2682 97.1809ZM62.2224 38.0192L82.5636 28.4307C71.3629 23.8143 59.6897 19.8536 47.6513 16.5851C46.7705 16.3506 45.4694 16.205 44.7659 16.5161C42.582 17.4855 40.5934 18.6941 39.2551 19.4174L50.5578 28.5744C54.3011 31.605 58.0436 34.6343 62.2224 38.0192Z" fill="black"/>
</svg>
