<svg width="114" height="84" viewBox="0 0 114 84" fill="none" xmlns="http://www.w3.org/2000/svg">
<path d="M24.4488 37.3142L40.2115 29.8404C36.0489 26.2178 31.981 22.6777 27.9126 19.1378C27.1076 18.4394 26.3099 17.7323 25.4869 17.0428C23.6078 15.4689 23.6064 13.8539 25.5064 12.3293C25.6745 12.1944 25.865 12.075 26.047 11.9496C32.7457 7.33433 31.2388 7.88786 38.7495 9.85903C45.6136 11.66 52.3757 13.7319 58.9664 16.0221C63.2942 17.5257 66.748 17.8804 70.9381 15.5094C76.5525 12.3067 83.1661 10.1915 90.1748 9.35693C95.8968 8.67769 101.535 8.71447 107.184 9.89613C114.876 11.5042 114.545 17.2927 110.879 20.0365C108.872 21.4955 106.673 22.8038 104.314 23.942C98.3965 26.8802 92.4206 29.7596 86.3565 32.5324C85.4749 32.8986 84.7127 33.4033 84.1252 34.0108C83.5377 34.6182 83.1387 35.3135 82.9571 36.0472C80.0333 45.6403 76.9766 55.2131 73.9355 64.7869C73.5815 65.7916 73.1591 66.7817 72.67 67.7549C72.3263 68.5132 71.7752 69.2115 71.0508 69.8068C70.3265 70.4021 69.4442 70.8814 68.4585 71.2157C64.867 72.4847 61.263 73.7369 57.6032 74.891C53.8167 76.0861 51.8434 75.0081 52.0828 71.9751C52.6847 64.3448 53.2906 56.7149 53.9005 49.0853C53.934 48.6634 53.905 48.24 53.905 47.5255C52.8006 47.9908 51.9017 48.3671 51.0064 48.7479C42.3848 52.416 33.9683 56.3995 24.594 58.9742C20.8794 60.0033 17.011 60.7012 13.0713 61.0531C9.23896 61.3813 6.26899 59.9872 4.59895 57.2306C2.87281 54.5129 1.80134 51.5946 1.43245 48.6064C0.999483 44.4027 0.574991 40.1984 0.237792 35.9903C0.0467444 33.6111 1.48783 32.0355 4.50567 30.9457C11.4253 28.4464 10.6526 28.808 15.306 31.7976C17.9961 33.5251 20.7606 35.1927 23.4991 36.8801C23.8025 37.04 24.1198 37.185 24.4488 37.3142ZM57.5579 70.3724L58.2133 70.593C59.8619 70.0358 61.4556 69.3476 63.1715 68.9511C66.0801 68.2802 66.8533 66.6361 67.5172 64.7108C71.1256 54.2444 74.8056 43.791 78.5567 33.3509C78.961 32.195 79.6777 31.1112 80.6641 30.1644C81.6506 29.2178 82.8864 28.4277 84.2977 27.8417C89.4893 25.5515 94.4779 23.0084 99.4962 20.5095C101.9 19.3127 104.247 18.0388 106.486 16.6804C108.376 15.534 108.087 14.6588 105.797 14.0855C100.826 12.8431 95.7213 12.6498 90.5555 13.1379C83.8782 13.7682 78.1007 16.0515 72.5373 18.6449C57.1119 25.8369 41.7089 33.0551 26.3284 40.2994C23.5849 41.5881 23.1629 41.612 20.7252 39.9686C17.663 37.9041 14.6721 35.7823 11.6208 33.7089C10.8137 33.1602 10.0545 32.2325 8.69275 32.9334C7.29605 33.6527 5.01696 33.8239 5.26338 35.6665C6.05151 41.5575 6.52189 47.4846 7.74602 53.3265C8.70468 57.901 10.7389 58.5222 16.8015 57.1909C23.3759 55.7472 29.4066 53.4419 35.2577 50.8665C41.455 48.1393 47.5815 45.3249 53.7509 42.5628C56.4524 41.3532 58.4427 42.0284 58.8827 44.2991C59.096 45.203 59.2069 46.1184 59.2144 47.0359C59.0179 52.7226 58.7704 58.4078 58.512 64.0931C58.4846 64.6968 58.2482 65.2949 58.1629 65.8991C57.9424 67.3893 57.7564 68.8817 57.5598 70.3729L57.5579 70.3724ZM45.1807 27.5312L59.9506 20.5878C51.8177 17.2449 43.3416 14.3768 34.6003 12.0099C33.9608 11.8401 33.016 11.7346 32.5052 11.9599C30.9195 12.6619 29.4755 13.5371 28.5037 14.0609L36.7108 20.6918C39.4288 22.8864 42.1464 25.08 45.1807 27.5312Z" fill="#C5E117"/>
</svg>
