<svg width="40" height="40" viewBox="0 0 40 40" fill="none" xmlns="http://www.w3.org/2000/svg">
<path d="M20 38.75C30.3553 38.75 38.75 30.3553 38.75 20C38.75 9.64466 30.3553 1.25 20 1.25C9.64466 1.25 1.25 9.64466 1.25 20C1.25 30.3553 9.64466 38.75 20 38.75Z" fill="#515570"/>
<path d="M20 35C28.2843 35 35 28.2843 35 20C35 11.7157 28.2843 5 20 5C11.7157 5 5 11.7157 5 20C5 28.2843 11.7157 35 20 35Z" fill="#6B718E"/>
<path d="M12.6719 37.3437C14.9928 38.3117 17.4854 38.8006 20 38.7812C22.5146 38.8006 25.0072 38.3117 27.3281 37.3437L28.75 15.9375H11.25L12.6719 37.3437Z" fill="white"/>
<path opacity="0.1" d="M26.4249 15.9375L24.5749 32.8594C24.4706 33.8404 24.0855 34.7706 23.4658 35.5383C22.8461 36.306 22.0181 36.8786 21.0812 37.1875C19.1878 37.7375 17.2415 38.0853 15.2749 38.225C16.8212 38.6033 18.4081 38.7901 19.9999 38.7812C22.5145 38.8006 25.0071 38.3117 27.328 37.3437L28.7499 15.9375H26.4249Z" fill="#356CB6"/>
<path d="M26.25 10.2094H14.0625C13.8792 10.209 13.6998 10.2624 13.5465 10.3629C13.3932 10.4634 13.2727 10.6067 13.2 10.775L11.875 13.8531H28.4375L27.1187 10.775C27.0456 10.6057 26.9242 10.4618 26.7697 10.3612C26.6151 10.2606 26.4344 10.2078 26.25 10.2094Z" fill="#A7AECE"/>
<path opacity="0.3" d="M26.25 10.2094H14.0625C13.8792 10.209 13.6998 10.2624 13.5465 10.3629C13.3932 10.4634 13.2727 10.6067 13.2 10.775L11.875 13.8531H28.4375L27.1187 10.775C27.0456 10.6057 26.9242 10.4618 26.7697 10.3612C26.6151 10.2606 26.4344 10.2078 26.25 10.2094Z" fill="white"/>
<path d="M20.2908 28.7161L25.4223 30.0911C25.315 30.4913 25.0531 30.8326 24.6942 31.0398C24.3354 31.247 23.9089 31.3032 23.5086 31.1959L21.3956 30.6297C20.9953 30.5225 20.6541 30.2606 20.4469 29.9017C20.2397 29.5428 20.1835 29.1164 20.2908 28.7161Z" fill="#393C54"/>
<path d="M14.5806 30.0914L19.712 28.7164C19.8193 29.1167 19.7632 29.5432 19.556 29.9021C19.3488 30.261 19.0075 30.5228 18.6072 30.6301L16.4942 31.1963C16.0939 31.3035 15.6675 31.2474 15.3086 31.0402C14.9497 30.833 14.6878 30.4917 14.5806 30.0914Z" fill="#393C54"/>
<path d="M29.6688 12.8125H10.3313C9.97572 12.8125 9.6875 13.1007 9.6875 13.4563V15.9187C9.6875 16.2743 9.97572 16.5625 10.3313 16.5625H29.6688C30.0243 16.5625 30.3125 16.2743 30.3125 15.9187V13.4563C30.3125 13.1007 30.0243 12.8125 29.6688 12.8125Z" fill="#A7AECE"/>
<path opacity="0.15" d="M29.6687 12.8125H26.8562C27.0269 12.8125 27.1907 12.8803 27.3114 13.001C27.4321 13.1218 27.5 13.2855 27.5 13.4563V15.9187C27.5 16.0895 27.4321 16.2532 27.3114 16.374C27.1907 16.4947 27.0269 16.5625 26.8562 16.5625H29.6687C29.8394 16.5625 30.0032 16.4947 30.1239 16.374C30.2446 16.2532 30.3125 16.0895 30.3125 15.9187V13.4563C30.3125 13.2855 30.2446 13.1218 30.1239 13.001C30.0032 12.8803 29.8394 12.8125 29.6687 12.8125Z" fill="#393C54"/>
<path d="M28.6407 28.4781L29.2032 20.0406C29.2087 19.9552 29.1967 19.8695 29.1678 19.789C29.1389 19.7084 29.0937 19.6346 29.0351 19.5722C28.9765 19.5098 28.9057 19.4601 28.8271 19.4261C28.7485 19.3922 28.6638 19.3748 28.5782 19.375H11.1063C11.0207 19.3748 10.936 19.3922 10.8574 19.4261C10.7788 19.4601 10.708 19.5098 10.6494 19.5722C10.5908 19.6346 10.5456 19.7084 10.5167 19.789C10.4878 19.8695 10.4757 19.9552 10.4813 20.0406L11.0438 28.4781C11.0541 28.6367 11.1245 28.7855 11.2406 28.894C11.3567 29.0026 11.5098 29.0628 11.6688 29.0625H28.0188C28.1772 29.062 28.3296 29.0014 28.445 28.893C28.5604 28.7845 28.6304 28.6362 28.6407 28.4781Z" fill="#F85565"/>
<path d="M28.6407 28.4781L29.2032 20.0406C29.2087 19.9552 29.1967 19.8695 29.1678 19.789C29.1389 19.7084 29.0937 19.6346 29.0351 19.5722C28.9765 19.5098 28.9057 19.4601 28.8271 19.4261C28.7485 19.3922 28.6638 19.3748 28.5782 19.375H11.1063C11.0207 19.3748 10.936 19.3922 10.8574 19.4261C10.7788 19.4601 10.708 19.5098 10.6494 19.5722C10.5908 19.6346 10.5456 19.7084 10.5167 19.789C10.4878 19.8695 10.4757 19.9552 10.4813 20.0406L11.0438 28.4781C11.0541 28.6367 11.1245 28.7855 11.2406 28.894C11.3567 29.0026 11.5098 29.0628 11.6688 29.0625H28.0188C28.1772 29.062 28.3296 29.0014 28.445 28.893C28.5604 28.7845 28.6304 28.6362 28.6407 28.4781Z" fill="#F85565"/>
<path opacity="0.15" d="M28.5813 19.375H26.0813C26.1669 19.3748 26.2516 19.3922 26.3302 19.4261C26.4088 19.4601 26.4796 19.5098 26.5382 19.5722C26.5968 19.6346 26.642 19.7084 26.6709 19.789C26.6998 19.8695 26.7119 19.9552 26.7063 20.0406L26.1438 28.4781C26.1335 28.6367 26.0631 28.7855 25.947 28.894C25.8309 29.0026 25.6778 29.0628 25.5188 29.0625H28.0188C28.1778 29.0628 28.3309 29.0026 28.447 28.894C28.5631 28.7855 28.6335 28.6367 28.6438 28.4781L29.2063 20.0406C29.2119 19.9552 29.1998 19.8695 29.1709 19.789C29.142 19.7084 29.0968 19.6346 29.0382 19.5722C28.9796 19.5098 28.9088 19.4601 28.8302 19.4261C28.7516 19.3922 28.6669 19.3748 28.5813 19.375Z" fill="#393C54"/>
<path d="M23.9062 26.4406C25.3162 26.4406 26.4593 25.7956 26.4593 25C26.4593 24.2044 25.3162 23.5594 23.9062 23.5594C22.4961 23.5594 21.353 24.2044 21.353 25C21.353 25.7956 22.4961 26.4406 23.9062 26.4406Z" fill="white"/>
<path d="M16.0937 26.4406C17.5037 26.4406 18.6468 25.7956 18.6468 25C18.6468 24.2044 17.5037 23.5594 16.0937 23.5594C14.6836 23.5594 13.5405 24.2044 13.5405 25C13.5405 25.7956 14.6836 26.4406 16.0937 26.4406Z" fill="white"/>
<path d="M23.9844 25.5625C24.5021 25.5625 24.9219 25.1428 24.9219 24.625C24.9219 24.1072 24.5021 23.6875 23.9844 23.6875C23.4666 23.6875 23.0469 24.1072 23.0469 24.625C23.0469 25.1428 23.4666 25.5625 23.9844 25.5625Z" fill="#515570"/>
<path d="M16.0156 25.5625C16.5334 25.5625 16.9531 25.1428 16.9531 24.625C16.9531 24.1072 16.5334 23.6875 16.0156 23.6875C15.4979 23.6875 15.0781 24.1072 15.0781 24.625C15.0781 25.1428 15.4979 25.5625 16.0156 25.5625Z" fill="#515570"/>
<path d="M18.4375 32.5H21.5625" stroke="#F85565" stroke-linecap="round" stroke-linejoin="round"/>
<path d="M31.25 20.3125H34.375C34.375 20.8927 34.1445 21.4491 33.7343 21.8593C33.3241 22.2695 32.7677 22.5 32.1875 22.5H29.0625C29.0625 21.9198 29.293 21.3634 29.7032 20.9532C30.1134 20.543 30.6698 20.3125 31.25 20.3125Z" fill="#F85565"/>
<path d="M32.1623 22.4882L34.372 24.6979C33.9617 25.1082 33.4053 25.3387 32.8252 25.3387C32.245 25.3387 31.6886 25.1082 31.2784 24.6979L29.0687 22.4882C29.4789 22.078 30.0353 21.8475 30.6155 21.8475C31.1956 21.8475 31.752 22.078 32.1623 22.4882Z" fill="#F85565"/>
<path opacity="0.2" d="M32.1623 22.4882L34.372 24.6979C33.9617 25.1082 33.4053 25.3387 32.8252 25.3387C32.245 25.3387 31.6886 25.1082 31.2784 24.6979L29.0687 22.4882C29.4789 22.078 30.0353 21.8475 30.6155 21.8475C31.1956 21.8475 31.752 22.078 32.1623 22.4882Z" fill="white"/>
<path opacity="0.3" d="M30.6249 6.82188H26.1968C25.5752 6.82188 24.979 7.06881 24.5395 7.50835C24.1 7.94788 23.853 8.54403 23.853 9.16563H28.2812C28.9028 9.16563 29.4989 8.9187 29.9384 8.47916C30.378 8.03962 30.6249 7.44348 30.6249 6.82188Z" fill="white"/>
<path opacity="0.3" d="M29.6155 3.90312C29.2027 4.0876 28.8521 4.38756 28.6059 4.76682C28.3597 5.14608 28.2285 5.58846 28.228 6.04062H32.5155C31.6197 5.23669 30.6486 4.52089 29.6155 3.90312Z" fill="white"/>
</svg>
