<svg width="40" height="40" viewBox="0 0 40 40" fill="none" xmlns="http://www.w3.org/2000/svg">
<path d="M20 38.75C30.3553 38.75 38.75 30.3553 38.75 20C38.75 9.64466 30.3553 1.25 20 1.25C9.64466 1.25 1.25 9.64466 1.25 20C1.25 30.3553 9.64466 38.75 20 38.75Z" fill="#4BC190"/>
<path opacity="0.3" d="M20 35C28.2843 35 35 28.2843 35 20C35 11.7157 28.2843 5 20 5C11.7157 5 5 11.7157 5 20C5 28.2843 11.7157 35 20 35Z" fill="#356CB6"/>
<path d="M28.5375 21.3625C29.9061 21.3625 31.0156 20.253 31.0156 18.8844C31.0156 17.5157 29.9061 16.4062 28.5375 16.4062C27.1688 16.4062 26.0593 17.5157 26.0593 18.8844C26.0593 20.253 27.1688 21.3625 28.5375 21.3625Z" fill="#FBC0AA"/>
<path d="M31.75 32.2312C31.2156 30.9812 29.8062 30.1562 28.2219 30.1562H27.7719C27.3656 26.5 24.0406 25.625 20 25.625C15.9594 25.625 12.6344 26.5 12.2281 30.1562H11.7781C10.1937 30.1562 8.78437 30.9875 8.25 32.2312L7.5 34.0063C10.9376 37.081 15.3879 38.7808 20 38.7808C24.6121 38.7808 29.0624 37.081 32.5 34.0063L31.75 32.2312Z" fill="#F8DC25"/>
<path d="M20 38.7812H20.3125V35C20.3125 34.9171 20.2796 34.8376 20.221 34.779C20.1624 34.7204 20.0829 34.6875 20 34.6875C19.9171 34.6875 19.8376 34.7204 19.779 34.779C19.7204 34.8376 19.6875 34.9171 19.6875 35V38.775L20 38.7812Z" fill="#F2BC0F"/>
<path d="M23.75 31.25C23.7508 30.6416 23.6036 30.0422 23.3211 29.5035C23.0385 28.9647 22.6292 28.5027 22.1283 28.1575C21.6274 27.8122 21.05 27.594 20.446 27.5216C19.8419 27.4493 19.2294 27.525 18.6611 27.7422C18.0929 27.9594 17.586 28.3116 17.1842 28.7684C16.7824 29.2252 16.4978 29.7729 16.3549 30.3642C16.212 30.9556 16.2151 31.5728 16.364 32.1626C16.5129 32.7525 16.803 33.2973 17.2094 33.75H17.1875L19.5344 36.3594C19.593 36.4259 19.6652 36.4791 19.746 36.5156C19.8268 36.5521 19.9144 36.571 20.0031 36.571C20.0918 36.571 20.1795 36.5521 20.2603 36.5156C20.3411 36.4791 20.4132 36.4259 20.4719 36.3594L22.8125 33.75C23.424 33.0616 23.758 32.1707 23.75 31.25Z" fill="white"/>
<path d="M20 26.4844V30.7812" stroke="#FBC0AA" stroke-linecap="round" stroke-linejoin="round"/>
<path d="M11.4625 21.3625C12.8311 21.3625 13.9406 20.253 13.9406 18.8844C13.9406 17.5157 12.8311 16.4062 11.4625 16.4062C10.0939 16.4062 8.98438 17.5157 8.98438 18.8844C8.98438 20.253 10.0939 21.3625 11.4625 21.3625Z" fill="#FBC0AA"/>
<path d="M20 30C16.3968 30 12.4625 26.8969 11.375 20.6875C10.3531 14.8562 11.0625 13.2687 11.0625 13.2687C11.0625 8.14062 28.975 8.14062 28.975 13.2687C28.975 13.2687 29.3562 15.5062 28.6625 20.6875C27.8718 26.25 23.6093 30 20 30Z" fill="#FFD8C9"/>
<path opacity="0.2" d="M22.8657 27.525H17.1344C17.1344 27.025 16.7969 24.8875 17.1876 24.0188C18.0344 22.1438 20.0001 21.3031 20.0001 21.3031C20.0001 21.3031 22.0782 22.0938 22.9126 24.0188C23.2532 24.7969 22.8657 27.0688 22.8657 27.525Z" fill="#515570"/>
<path opacity="0.4" d="M20 25.3125C21.5625 25.3125 22.1875 24.375 22.1875 24.375H17.8125C17.8125 24.375 18.4375 25.3125 20 25.3125Z" fill="#F85565"/>
<path d="M23.4375 24.375C23.4156 22.8125 21.5625 22.7875 20 22.7875C18.4375 22.7875 16.5875 22.8125 16.5625 24.375V29.425C17.6512 29.8809 18.8197 30.1156 20 30.1156C21.1803 30.1156 22.3488 29.8809 23.4375 29.425V24.375ZM21.875 27.1875H21.1812C21.1099 27.1896 21.0399 27.1672 20.9831 27.1239C20.9262 27.0807 20.8859 27.0193 20.8687 26.95L20.675 26.175C20.6579 26.1057 20.6175 26.0443 20.5607 26.0011C20.5038 25.9579 20.4339 25.9354 20.3625 25.9375H19.6187C19.5474 25.9354 19.4774 25.9579 19.4206 26.0011C19.3637 26.0443 19.3234 26.1057 19.3062 26.175L19.1125 26.95C19.0954 27.0193 19.055 27.0807 18.9982 27.1239C18.9413 27.1672 18.8714 27.1896 18.8 27.1875H18.125C17.9592 27.1875 17.8003 27.1217 17.6831 27.0044C17.5658 26.8872 17.5 26.7283 17.5 26.5625V25.025C17.5 24.8592 17.5658 24.7003 17.6831 24.5831C17.8003 24.4659 17.9592 24.4 18.125 24.4H21.875C22.0408 24.4 22.1997 24.4659 22.3169 24.5831C22.4342 24.7003 22.5 24.8592 22.5 25.025V26.5625C22.5 26.7283 22.4342 26.8872 22.3169 27.0044C22.1997 27.1217 22.0408 27.1875 21.875 27.1875Z" fill="#7F3838"/>
<path d="M20 18.6719V22.5781" stroke="#FBC0AA" stroke-linecap="round" stroke-linejoin="round"/>
<path d="M20.7812 22.1875H19.2188" stroke="#FBC0AA" stroke-linecap="round" stroke-linejoin="round"/>
<path opacity="0.3" d="M20.625 21.875H20.9375" stroke="#F85565" stroke-linecap="round" stroke-linejoin="round"/>
<path opacity="0.1" d="M28.6282 20.7156C27.8844 20.8004 27.1982 21.1572 26.7015 21.7173C26.2048 22.2774 25.9327 23.0014 25.9376 23.75V26.8219C27.3934 25.0816 28.3263 22.9644 28.6282 20.7156Z" fill="#515570"/>
<path opacity="0.1" d="M11.3813 20.7219C11.8407 23.3188 12.8126 25.3656 14.0251 26.875V23.75C14.0291 23.0098 13.7626 22.2936 13.2758 21.7361C12.789 21.1785 12.1153 20.8178 11.3813 20.7219Z" fill="#515570"/>
<path d="M22.0032 17.5H25.8094C26.0091 17.5 26.2007 17.5793 26.3419 17.7206C26.4832 17.8618 26.5625 18.0534 26.5625 18.2531V19.375C26.5625 19.8723 26.365 20.3492 26.0134 20.7008C25.6617 21.0525 25.1848 21.25 24.6875 21.25H23.3032C22.7586 21.25 22.2364 21.0337 21.8514 20.6487C21.4663 20.2636 21.25 19.7414 21.25 19.1969V18.2594C21.2492 18.1599 21.2681 18.0613 21.3056 17.9692C21.343 17.8772 21.3984 17.7934 21.4684 17.7228C21.5384 17.6522 21.6217 17.5962 21.7135 17.5579C21.8053 17.5197 21.9037 17.5 22.0032 17.5Z" fill="#393C54"/>
<path d="M16.6969 21.25H15.3125C14.8152 21.25 14.3383 21.0525 13.9867 20.7008C13.635 20.3492 13.4375 19.8723 13.4375 19.375V18.2625C13.4362 18.1628 13.4548 18.0639 13.4921 17.9714C13.5294 17.879 13.5847 17.7948 13.6547 17.7239C13.7248 17.653 13.8082 17.5966 13.9002 17.5582C13.9922 17.5198 14.0909 17.5 14.1906 17.5H17.9969C18.1966 17.5 18.3882 17.5793 18.5294 17.7206C18.6706 17.8618 18.75 18.0534 18.75 18.2531V19.1906C18.7508 19.4608 18.6983 19.7284 18.5955 19.9782C18.4927 20.2281 18.3416 20.4551 18.1509 20.6464C17.9601 20.8378 17.7335 20.9895 17.484 21.0931C17.2345 21.1967 16.967 21.25 16.6969 21.25Z" fill="#393C54"/>
<path d="M22.0032 17.5H25.8094C26.0091 17.5 26.2007 17.5793 26.3419 17.7206C26.4832 17.8618 26.5625 18.0534 26.5625 18.2531V19.375C26.5625 19.8723 26.365 20.3492 26.0134 20.7008C25.6617 21.0525 25.1848 21.25 24.6875 21.25H23.3032C22.7586 21.25 22.2364 21.0337 21.8514 20.6487C21.4663 20.2636 21.25 19.7414 21.25 19.1969V18.2594C21.2492 18.1599 21.2681 18.0613 21.3056 17.9692C21.343 17.8772 21.3984 17.7934 21.4684 17.7228C21.5384 17.6522 21.6217 17.5962 21.7135 17.5579C21.8053 17.5197 21.9037 17.5 22.0032 17.5Z" stroke="#515570" stroke-linecap="round" stroke-linejoin="round"/>
<path d="M16.6969 21.25H15.3125C14.8152 21.25 14.3383 21.0525 13.9867 20.7008C13.635 20.3492 13.4375 19.8723 13.4375 19.375V18.2625C13.4362 18.1628 13.4548 18.0639 13.4921 17.9714C13.5294 17.879 13.5847 17.7948 13.6547 17.7239C13.7248 17.653 13.8082 17.5966 13.9002 17.5582C13.9922 17.5198 14.0909 17.5 14.1906 17.5H17.9969C18.1966 17.5 18.3882 17.5793 18.5294 17.7206C18.6706 17.8618 18.75 18.0534 18.75 18.2531V19.1906C18.7508 19.4608 18.6983 19.7284 18.5955 19.9782C18.4927 20.2281 18.3416 20.4551 18.1509 20.6464C17.9601 20.8378 17.7335 20.9895 17.484 21.0931C17.2345 21.1967 16.967 21.25 16.6969 21.25Z" stroke="#515570" stroke-linecap="round" stroke-linejoin="round"/>
<path d="M18.75 19.375C18.75 19.0435 18.8817 18.7255 19.1161 18.4911C19.3505 18.2567 19.6685 18.125 20 18.125C20.3315 18.125 20.6495 18.2567 20.8839 18.4911C21.1183 18.7255 21.25 19.0435 21.25 19.375" stroke="#515570" stroke-linecap="round" stroke-linejoin="round"/>
<path d="M26.5625 18.2531L28.85 16.4062" stroke="#515570" stroke-linecap="round" stroke-linejoin="round"/>
<path d="M13.4374 18.2531L11.1499 16.4281" stroke="#515570" stroke-linecap="round" stroke-linejoin="round"/>
<path d="M28.75 9.6875H11.25C10.9048 9.6875 10.625 9.96732 10.625 10.3125V13.75C10.625 14.0952 10.9048 14.375 11.25 14.375H28.75C29.0952 14.375 29.375 14.0952 29.375 13.75V10.3125C29.375 9.96732 29.0952 9.6875 28.75 9.6875Z" fill="#393C54"/>
<path d="M23.75 7.91562H16.1282L12.6907 10.1031H27.1875L23.75 7.91562Z" fill="#393C54"/>
<path d="M10.625 10H29.375" stroke="#515570" stroke-linecap="round" stroke-linejoin="round"/>
<path d="M7.87427 11.3612L13.0826 6.15289L14.1233 7.19366C14.2553 7.33369 14.3273 7.51974 14.324 7.71212C14.3207 7.9045 14.2423 8.08797 14.1056 8.22339L9.94255 12.3865C9.80425 12.5248 9.61666 12.6025 9.42106 12.6025C9.22547 12.6025 9.03788 12.5248 8.89957 12.3865L7.87427 11.3612Z" fill="#393C54"/>
<path d="M12.6829 5.49672L7.21607 10.9635C7.00006 11.1796 7.00006 11.5298 7.21607 11.7458C7.43208 11.9618 7.7823 11.9618 7.99831 11.7458L13.4651 6.27896C13.6811 6.06295 13.6811 5.71273 13.4651 5.49672C13.2491 5.28071 12.8989 5.28071 12.6829 5.49672Z" fill="#F85565"/>
<path d="M9.61559 6.47813L6.82184 9.27188C6.75334 9.34011 6.69898 9.4212 6.66189 9.51049C6.6248 9.59978 6.60571 9.69551 6.60571 9.79219C6.60571 9.88888 6.6248 9.98461 6.66189 10.0739C6.69898 10.1632 6.75334 10.2443 6.82184 10.3125L7.34371 10.8344L12.5531 5.62501L12.425 5.49688C12.3128 5.38762 12.1687 5.31692 12.0136 5.29501C11.8586 5.27309 11.7005 5.30111 11.5625 5.37501L9.79371 6.35626C9.72905 6.38855 9.66911 6.42956 9.61559 6.47813Z" fill="#FF8475"/>
<path d="M30.0559 12.386L25.8928 8.22292C25.7545 8.08461 25.6768 7.89702 25.6768 7.70142C25.6768 7.50583 25.7545 7.31824 25.8928 7.17993L26.9181 6.15463L32.1264 11.3629L31.0945 12.3948C30.9552 12.5306 30.7679 12.6059 30.5734 12.6042C30.3788 12.6026 30.1928 12.5242 30.0559 12.386Z" fill="#393C54"/>
<path d="M26.5403 6.27628L32.0071 11.7431C32.2231 11.9591 32.5733 11.9591 32.7893 11.7431C33.0053 11.5271 33.0053 11.1769 32.7893 10.9609L27.3225 5.49404C27.1065 5.27803 26.7563 5.27803 26.5403 5.49404C26.3242 5.71005 26.3242 6.06027 26.5403 6.27628Z" fill="#F85565"/>
<path d="M30.3843 6.47812L33.178 9.27187C33.2465 9.3401 33.3009 9.42119 33.338 9.51048C33.3751 9.59976 33.3942 9.6955 33.3942 9.79218C33.3942 9.88887 33.3751 9.9846 33.338 10.0739C33.3009 10.1632 33.2465 10.2443 33.178 10.3125L32.6562 10.8344L27.4468 5.625L27.5749 5.49687C27.6883 5.38411 27.8352 5.31124 27.9936 5.28926C28.152 5.26728 28.3132 5.29737 28.453 5.375L30.2218 6.35625C30.281 6.38971 30.3356 6.43068 30.3843 6.47812Z" fill="#FF8475"/>
<path d="M22.1875 8.125H17.8125L17.1875 5.9375H22.8125L22.1875 8.125Z" fill="#393C54"/>
<path d="M16.5625 5.9375H23.4375" stroke="#515570" stroke-linecap="round" stroke-linejoin="round"/>
<path d="M29.8062 16.1906L26.6812 13.3031L27.953 11.925L31.078 14.8094C31.1688 14.8927 31.2422 14.993 31.2941 15.1047C31.346 15.2164 31.3755 15.3372 31.3807 15.4602C31.3859 15.5833 31.3668 15.7061 31.3246 15.8218C31.2823 15.9375 31.2176 16.0437 31.1343 16.1344C31.0509 16.2256 30.9504 16.2994 30.8385 16.3516C30.7265 16.4038 30.6053 16.4334 30.4819 16.4386C30.3585 16.4438 30.2353 16.4246 30.1193 16.3821C30.0033 16.3395 29.8969 16.2744 29.8062 16.1906Z" fill="#515570"/>
<path d="M10.1188 16.1906L13.2438 13.3031L11.972 11.925L8.84697 14.8094C8.75646 14.8929 8.68329 14.9934 8.63163 15.1052C8.57998 15.217 8.55085 15.3378 8.54592 15.4609C8.54099 15.5839 8.56034 15.7067 8.60288 15.8223C8.64542 15.9379 8.71031 16.0439 8.79384 16.1344C8.87713 16.2251 8.97748 16.2985 9.08915 16.3505C9.20083 16.4024 9.32164 16.4318 9.44469 16.437C9.56774 16.4423 9.69061 16.4232 9.80628 16.3809C9.92195 16.3386 10.0282 16.274 10.1188 16.1906Z" fill="#515570"/>
<g opacity="0.1">
<path d="M15 15L18.4375 15.625L22.1875 15.3125L25.625 15" stroke="#515570" stroke-linecap="round" stroke-linejoin="round"/>
<path d="M14.6875 15.9375L18.75 16.875L21.5625 16.5625H25.625" stroke="#515570" stroke-linecap="round" stroke-linejoin="round"/>
<path d="M17.5 13.4375L19.0625 18.125" stroke="#515570" stroke-linecap="round" stroke-linejoin="round"/>
<path d="M20.3125 13.4375L20 18.125" stroke="#515570" stroke-linecap="round" stroke-linejoin="round"/>
</g>
<path d="M11.7782 30.1562C11.4544 30.1564 11.1317 30.192 10.8157 30.2625C10.8157 30.2625 11.25 33.125 13.75 34.375C12.7199 33.2163 12.175 31.7057 12.2282 30.1562H11.7782Z" fill="#F2BC0F"/>
<path d="M26.25 34.375C28.75 33.125 29.1844 30.2625 29.1844 30.2625C28.8684 30.192 28.5456 30.1564 28.2219 30.1562H27.7719C27.8251 31.7057 27.2802 33.2163 26.25 34.375Z" fill="#F2BC0F"/>
</svg>
