<svg width="40" height="40" viewBox="0 0 40 40" fill="none" xmlns="http://www.w3.org/2000/svg">
<path d="M20 38.75C30.3553 38.75 38.75 30.3553 38.75 20C38.75 9.64466 30.3553 1.25 20 1.25C9.64466 1.25 1.25 9.64466 1.25 20C1.25 30.3553 9.64466 38.75 20 38.75Z" fill="#A7AECE"/>
<path opacity="0.2" d="M20 35C28.2843 35 35 28.2843 35 20C35 11.7157 28.2843 5 20 5C11.7157 5 5 11.7157 5 20C5 28.2843 11.7157 35 20 35Z" fill="#515570"/>
<path d="M28.5375 21.9875C29.9061 21.9875 31.0156 20.878 31.0156 19.5094C31.0156 18.1407 29.9061 17.0312 28.5375 17.0312C27.1688 17.0312 26.0593 18.1407 26.0593 19.5094C26.0593 20.878 27.1688 21.9875 28.5375 21.9875Z" fill="#FBA875"/>
<path d="M20.0001 38.75C24.5894 38.7556 29.0202 37.0714 32.447 34.0188L31.7501 32.3875C31.2157 31.1375 29.8063 30.3125 28.222 30.3125H11.7782C10.1938 30.3125 8.78447 31.1437 8.2501 32.3875L7.55322 34.0188C10.98 37.0714 15.4108 38.7556 20.0001 38.75Z" fill="#FFBB94"/>
<path d="M11.25 36.5781C13.9461 38.0043 16.9499 38.7499 20 38.7499C23.0501 38.7499 26.0539 38.0043 28.75 36.5781V30.3281C28.5747 30.3082 28.3984 30.2978 28.2219 30.2969H11.7781C11.6016 30.2978 11.4253 30.3082 11.25 30.3281V36.5781Z" fill="#393C54"/>
<path d="M15.3125 30.3125V30.625C15.3125 31.8682 15.8064 33.0605 16.6854 33.9396C17.5645 34.8186 18.7568 35.3125 20 35.3125C21.2432 35.3125 22.4355 34.8186 23.3146 33.9396C24.1936 33.0605 24.6875 31.8682 24.6875 30.625V30.3125H15.3125Z" fill="#FFBB94"/>
<path d="M20 26.4844V30.7812" stroke="#FBA875" stroke-miterlimit="10" stroke-linecap="round"/>
<path d="M11.4625 21.9875C12.8311 21.9875 13.9406 20.878 13.9406 19.5094C13.9406 18.1407 12.8311 17.0312 11.4625 17.0312C10.0939 17.0312 8.98438 18.1407 8.98438 19.5094C8.98438 20.878 10.0939 21.9875 11.4625 21.9875Z" fill="#FBA875"/>
<path d="M19.9999 29.8031C18.8376 29.8035 17.6866 29.5749 16.6127 29.1303C15.5388 28.6857 14.563 28.0338 13.7411 27.2119C12.9192 26.3901 12.2673 25.4143 11.8227 24.3404C11.3781 23.2664 11.1495 22.1154 11.1499 20.9531V16.0719C11.1499 13.7247 12.0823 11.4737 13.742 9.81398C15.4017 8.15429 17.6527 7.22188 19.9999 7.22188C22.3471 7.22188 24.5981 8.15429 26.2578 9.81398C27.9175 11.4737 28.8499 13.7247 28.8499 16.0719V20.9531C28.8503 22.1154 28.6217 23.2664 28.1771 24.3404C27.7325 25.4143 27.0806 26.3901 26.2587 27.2119C25.4368 28.0338 24.4611 28.6857 23.3871 29.1303C22.3132 29.5749 21.1622 29.8035 19.9999 29.8031Z" fill="#FFBB94"/>
<path d="M23.9595 20.0875C24.4772 20.0875 24.897 19.6678 24.897 19.15C24.897 18.6322 24.4772 18.2125 23.9595 18.2125C23.4417 18.2125 23.022 18.6322 23.022 19.15C23.022 19.6678 23.4417 20.0875 23.9595 20.0875Z" fill="#393C54"/>
<path d="M15.522 20.0875C16.0397 20.0875 16.4595 19.6678 16.4595 19.15C16.4595 18.6322 16.0397 18.2125 15.522 18.2125C15.0042 18.2125 14.5845 18.6322 14.5845 19.15C14.5845 19.6678 15.0042 20.0875 15.522 20.0875Z" fill="#393C54"/>
<path d="M23.2468 17.5L26.25 17.1094" stroke="#4BC190" stroke-miterlimit="10" stroke-linecap="round"/>
<path d="M16.5625 17.5L13.5593 17.1094" stroke="#4BC190" stroke-miterlimit="10" stroke-linecap="round"/>
<path opacity="0.15" d="M28.8374 15.625C28.7295 13.5444 27.8911 11.5685 26.4696 10.0453C25.0482 8.52203 23.1349 7.54912 21.0667 7.29783C18.9985 7.04654 16.9079 7.53297 15.1631 8.67149C13.4182 9.81 12.131 11.5276 11.528 13.5219C11.2838 14.4109 11.1567 15.328 11.1499 16.25V16.4531L11.1718 16.4781H11.2187C11.6065 16.4783 11.9874 16.3754 12.3224 16.1799C12.6573 15.9844 12.9343 15.7034 13.1249 15.3656L14.1124 13.6187C14.4612 13.0003 14.9955 12.5071 15.6398 12.2088C16.2841 11.9104 17.0058 11.8221 17.703 11.9562C18.3618 12.0971 19.0326 12.1745 19.7062 12.1875H20.2874C20.961 12.1745 21.6317 12.0971 22.2905 11.9562C22.9878 11.8221 23.7095 11.9104 24.3538 12.2088C24.9981 12.5071 25.5324 13.0003 25.8812 13.6187L26.8749 15.3656C27.0649 15.705 27.3421 15.9876 27.6777 16.1843C28.0133 16.3809 28.3953 16.4845 28.7843 16.4844H28.853V16.0719C28.8499 15.9375 28.8468 15.7687 28.8374 15.625Z" fill="#393C54"/>
<path d="M22.8125 4.6875H17.1875L18.1813 10.6469C18.253 11.0774 18.4752 11.4685 18.8082 11.7506C19.1412 12.0327 19.5635 12.1875 20 12.1875C20.4365 12.1875 20.8588 12.0327 21.1918 11.7506C21.5248 11.4685 21.747 11.0774 21.8187 10.6469L22.8125 4.6875Z" fill="#F85565"/>
<path opacity="0.3" d="M21.875 4.6875L20.8812 10.6469C20.8221 10.9963 20.6632 11.3211 20.4237 11.5822C20.1842 11.8434 19.8742 12.0297 19.5312 12.1187C19.6838 12.1624 19.8414 12.1855 20 12.1875C20.4365 12.1875 20.8588 12.0327 21.1918 11.7506C21.5248 11.4685 21.747 11.0774 21.8187 10.6469L22.8125 4.6875H21.875Z" fill="#356CB6"/>
<path d="M23.2812 9.375C23.5401 9.375 23.75 9.16513 23.75 8.90625C23.75 8.64737 23.5401 8.4375 23.2812 8.4375C23.0224 8.4375 22.8125 8.64737 22.8125 8.90625C22.8125 9.16513 23.0224 9.375 23.2812 9.375Z" fill="#F85565"/>
<path d="M22.5 10.3125C22.6726 10.3125 22.8125 10.1726 22.8125 10C22.8125 9.82741 22.6726 9.6875 22.5 9.6875C22.3274 9.6875 22.1875 9.82741 22.1875 10C22.1875 10.1726 22.3274 10.3125 22.5 10.3125Z" fill="#F85565"/>
<path d="M16.875 9.0625C17.0476 9.0625 17.1875 8.92259 17.1875 8.75C17.1875 8.57741 17.0476 8.4375 16.875 8.4375C16.7024 8.4375 16.5625 8.57741 16.5625 8.75C16.5625 8.92259 16.7024 9.0625 16.875 9.0625Z" fill="#F85565"/>
<path d="M22.3595 24.375C22.4021 24.3749 22.4443 24.3836 22.4835 24.4004C22.5227 24.4173 22.558 24.442 22.5873 24.4731C22.6166 24.5041 22.6392 24.5408 22.6538 24.5809C22.6683 24.621 22.6745 24.6637 22.672 24.7062C22.6008 25.3611 22.2903 25.9665 21.8001 26.4064C21.3098 26.8463 20.6744 27.0896 20.0157 27.0896C19.357 27.0896 18.7216 26.8463 18.2313 26.4064C17.7411 25.9665 17.4306 25.3611 17.3594 24.7062C17.3569 24.6637 17.3631 24.621 17.3776 24.5809C17.3922 24.5408 17.4148 24.5041 17.4441 24.4731C17.4734 24.442 17.5087 24.4173 17.5479 24.4004C17.5871 24.3836 17.6293 24.3749 17.6719 24.375H22.3595Z" fill="#393C54"/>
<path d="M20 27.0813C20.3703 27.0808 20.7364 27.003 21.0749 26.8528C21.4134 26.7027 21.7168 26.4835 21.9657 26.2094C21.4379 25.7003 20.7333 25.4158 20 25.4158C19.2668 25.4158 18.5622 25.7003 18.0344 26.2094C18.2833 26.4835 18.5867 26.7027 18.9252 26.8528C19.2637 27.003 19.6298 27.0808 20 27.0813Z" fill="#F85565"/>
<path d="M18.125 24.375C18.125 24.5408 18.1908 24.6997 18.3081 24.8169C18.4253 24.9342 18.5842 25 18.75 25H21.25C21.4158 25 21.5747 24.9342 21.6919 24.8169C21.8092 24.6997 21.875 24.5408 21.875 24.375H18.125Z" fill="white"/>
<path d="M20 20.3125V22.1875" stroke="#FBA875" stroke-miterlimit="10" stroke-linecap="round"/>
<path d="M20.9375 22.5H19.0625" stroke="#FBA875" stroke-miterlimit="10" stroke-linecap="round"/>
<path d="M26.25 30.4688C26.25 30.7281 25.9688 30.9375 25.625 30.9375C25.2812 30.9375 25 30.7281 25 30.4688C25 30.2094 25.2812 29.0625 25.625 29.0625C25.9688 29.0625 26.25 30.2094 26.25 30.4688Z" fill="#515570"/>
<path d="M28.125 30.4688C28.125 30.7281 27.8438 30.9375 27.5 30.9375C27.1562 30.9375 26.875 30.7281 26.875 30.4688C26.875 30.2094 27.1562 29.0625 27.5 29.0625C27.8438 29.0625 28.125 30.2094 28.125 30.4688Z" fill="#515570"/>
<path d="M13.75 30.4688C13.75 30.7281 14.0312 30.9375 14.375 30.9375C14.7188 30.9375 15 30.7281 15 30.4688C15 30.2094 14.7188 29.0625 14.375 29.0625C14.0312 29.0625 13.75 30.2094 13.75 30.4688Z" fill="#515570"/>
<path d="M11.875 30.4688C11.875 30.7281 12.1562 30.9375 12.5 30.9375C12.8438 30.9375 13.125 30.7281 13.125 30.4688C13.125 30.2094 12.8438 29.0625 12.5 29.0625C12.1562 29.0625 11.875 30.2094 11.875 30.4688Z" fill="#515570"/>
<path d="M26.25 32.9688C26.25 33.2281 25.9688 33.4375 25.625 33.4375C25.2812 33.4375 25 33.2281 25 32.9688C25 32.7094 25.2812 31.5625 25.625 31.5625C25.9688 31.5625 26.25 32.7094 26.25 32.9688Z" fill="#515570"/>
<path d="M28.125 32.9688C28.125 33.2281 27.8438 33.4375 27.5 33.4375C27.1562 33.4375 26.875 33.2281 26.875 32.9688C26.875 32.7094 27.1562 31.5625 27.5 31.5625C27.8438 31.5625 28.125 32.7094 28.125 32.9688Z" fill="#515570"/>
<path d="M13.75 32.9688C13.75 33.2281 14.0312 33.4375 14.375 33.4375C14.7188 33.4375 15 33.2281 15 32.9688C15 32.7094 14.7188 31.5625 14.375 31.5625C14.0312 31.5625 13.75 32.7094 13.75 32.9688Z" fill="#515570"/>
<path d="M11.875 32.9688C11.875 33.2281 12.1562 33.4375 12.5 33.4375C12.8438 33.4375 13.125 33.2281 13.125 32.9688C13.125 32.7094 12.8438 31.5625 12.5 31.5625C12.1562 31.5625 11.875 32.7094 11.875 32.9688Z" fill="#515570"/>
<path d="M26.25 35.7812C26.25 36.0406 25.9688 36.25 25.625 36.25C25.2812 36.25 25 36.0406 25 35.7812C25 35.5219 25.2812 34.375 25.625 34.375C25.9688 34.375 26.25 35.5219 26.25 35.7812Z" fill="#515570"/>
<path d="M28.125 35.7812C28.125 36.0406 27.8438 36.25 27.5 36.25C27.1562 36.25 26.875 36.0406 26.875 35.7812C26.875 35.5219 27.1562 34.375 27.5 34.375C27.8438 34.375 28.125 35.5219 28.125 35.7812Z" fill="#515570"/>
<path d="M13.75 35.7812C13.75 36.0406 14.0312 36.25 14.375 36.25C14.7188 36.25 15 36.0406 15 35.7812C15 35.5219 14.7188 34.375 14.375 34.375C14.0312 34.375 13.75 35.5219 13.75 35.7812Z" fill="#515570"/>
<path d="M11.875 35.7812C11.875 36.0406 12.1562 36.25 12.5 36.25C12.8438 36.25 13.125 36.0406 13.125 35.7812C13.125 35.5219 12.8438 34.375 12.5 34.375C12.1562 34.375 11.875 35.5219 11.875 35.7812Z" fill="#515570"/>
<path d="M10.1562 18.2812L9.0625 17.1875" stroke="white" stroke-linecap="round" stroke-linejoin="round"/>
<path d="M29.5312 17.9688L30.4688 17.0312" stroke="white" stroke-linecap="round" stroke-linejoin="round"/>
<path d="M30.1562 19.5312C30.3288 19.5312 30.4688 19.3913 30.4688 19.2188C30.4688 19.0462 30.3288 18.9062 30.1562 18.9062C29.9837 18.9062 29.8438 19.0462 29.8438 19.2188C29.8438 19.3913 29.9837 19.5312 30.1562 19.5312Z" fill="white"/>
</svg>
