<svg width="40" height="40" viewBox="0 0 40 40" fill="none" xmlns="http://www.w3.org/2000/svg">
<path d="M20 38.75C30.3553 38.75 38.75 30.3553 38.75 20C38.75 9.64466 30.3553 1.25 20 1.25C9.64466 1.25 1.25 9.64466 1.25 20C1.25 30.3553 9.64466 38.75 20 38.75Z" fill="#00ADFE"/>
<path opacity="0.3" d="M20 35C28.2843 35 35 28.2843 35 20C35 11.7157 28.2843 5 20 5C11.7157 5 5 11.7157 5 20C5 28.2843 11.7157 35 20 35Z" fill="#356CB6"/>
<path d="M20 4.33749C22.6522 4.33749 25.1957 5.39106 27.0711 7.26643C28.9464 9.14179 30 11.6853 30 14.3375V34.5844H10V14.3375C10 11.6853 11.0536 9.14179 12.9289 7.26643C14.8043 5.39106 17.3478 4.33749 20 4.33749Z" fill="#393C54"/>
<path d="M27.8125 21.25C29.0206 21.25 30 20.2706 30 19.0625C30 17.8544 29.0206 16.875 27.8125 16.875C26.6044 16.875 25.625 17.8544 25.625 19.0625C25.625 20.2706 26.6044 21.25 27.8125 21.25Z" fill="#FBC0AA"/>
<path d="M20 38.75C23.8854 38.7555 27.6755 37.5471 30.8407 35.2938L29.8032 32.3875C29.5874 31.7827 29.1906 31.259 28.6667 30.8878C28.1428 30.5165 27.5172 30.3156 26.875 30.3125H13.1407C12.4959 30.3124 11.8668 30.5118 11.3398 30.8833C10.8128 31.2548 10.4136 31.7802 10.1969 32.3875L9.15942 35.2938C12.3246 37.5471 16.1147 38.7555 20 38.75Z" fill="#F85565"/>
<path d="M22.8125 30.7031C22.8125 31.449 22.5162 32.1644 21.9887 32.6918C21.4613 33.2193 20.7459 33.5156 20 33.5156C19.2541 33.5156 18.5387 33.2193 18.0113 32.6918C17.4838 32.1644 17.1875 31.449 17.1875 30.7031C17.1875 29.1406 18.4375 29.7656 20 29.7656C21.5625 29.7656 22.8125 29.15 22.8125 30.7031Z" fill="white"/>
<path d="M20 26.4844V30.7812" stroke="#FBC0AA" stroke-linecap="round" stroke-linejoin="round"/>
<path d="M12.1875 21.25C13.3956 21.25 14.375 20.2706 14.375 19.0625C14.375 17.8544 13.3956 16.875 12.1875 16.875C10.9794 16.875 10 17.8544 10 19.0625C10 20.2706 10.9794 21.25 12.1875 21.25Z" fill="#FBC0AA"/>
<path d="M20 28.4375C17.928 28.4375 15.9409 27.6144 14.4757 26.1493C13.0106 24.6842 12.1875 22.697 12.1875 20.625V15.475C12.1875 13.403 13.0106 11.4159 14.4757 9.95073C15.9409 8.48561 17.928 7.66251 20 7.66251C22.072 7.66251 24.0591 8.48561 25.5243 9.95073C26.9894 11.4159 27.8125 13.403 27.8125 15.475V20.625C27.8125 22.697 26.9894 24.6842 25.5243 26.1493C24.0591 27.6144 22.072 28.4375 20 28.4375Z" fill="#FFD8C9"/>
<path d="M11.4095 16.2875V14.8125C11.4095 10.1406 15.0688 6.18438 19.7407 6.06251C20.8884 6.02869 22.0313 6.22514 23.1018 6.64024C24.1724 7.05535 25.1489 7.6807 25.9738 8.4794C26.7988 9.27809 27.4553 10.2339 27.9048 11.2905C28.3542 12.3471 28.5874 13.483 28.5907 14.6313V14.5563C28.5907 14.722 28.5249 14.881 28.4076 14.9982C28.2904 15.1154 28.1315 15.1813 27.9657 15.1813H25.0376C24.9403 15.1811 24.8447 15.1561 24.7599 15.1085C24.6751 15.0609 24.604 14.9923 24.5532 14.9094L23.8251 13.7219C23.7701 13.632 23.6912 13.5592 23.5972 13.5116C23.5032 13.464 23.3978 13.4434 23.2928 13.4521C23.1878 13.4609 23.0873 13.4986 23.0025 13.5612C22.9177 13.6237 22.852 13.7085 22.8126 13.8063L21.8407 16.5625C21.7979 16.6676 21.7249 16.7575 21.6308 16.821C21.5368 16.8844 21.426 16.9184 21.3126 16.9188H12.047C11.9633 16.9204 11.8802 16.9053 11.8025 16.8742C11.7248 16.8432 11.6541 16.7969 11.5947 16.738C11.5352 16.6791 11.4882 16.6089 11.4564 16.5315C11.4246 16.4542 11.4086 16.3712 11.4095 16.2875Z" fill="#515570"/>
<path opacity="0.1" d="M13.8188 12.1406C14.3062 10.9382 15.1286 9.90102 16.1885 9.15256C17.2483 8.4041 18.5008 7.97585 19.797 7.91876" stroke="white" stroke-miterlimit="10" stroke-linecap="round"/>
<path d="M23.3345 19.4625C23.8522 19.4625 24.272 19.0428 24.272 18.525C24.272 18.0072 23.8522 17.5875 23.3345 17.5875C22.8167 17.5875 22.397 18.0072 22.397 18.525C22.397 19.0428 22.8167 19.4625 23.3345 19.4625Z" fill="#515570"/>
<path d="M17.1875 18.75H15.3125" stroke="#515570" stroke-linecap="round" stroke-linejoin="round"/>
<path d="M19.7969 19.9219V21.3281" stroke="#FBC0AA" stroke-linecap="round" stroke-linejoin="round"/>
<path opacity="0.5" d="M21.6094 24.6688C21.6094 25.2938 20.8906 25.6563 20 25.6563C19.1094 25.6563 18.3906 25.1813 18.3906 24.6688C18.3906 23.7813 19.1656 23.4375 20 23.6844C20.8063 23.4125 21.6094 23.7813 21.6094 24.6688Z" fill="#F85565"/>
<path d="M18.125 24.3344C19.3325 24.7952 20.6675 24.7952 21.875 24.3344" stroke="#F85565" stroke-linecap="round" stroke-linejoin="round"/>
<path opacity="0.2" d="M22.6218 16.5625H25.3125" stroke="#515570" stroke-linecap="round" stroke-linejoin="round"/>
</svg>
